PathFileType	4	(X/Y/Z)	/Users/itak/Documents/Research/Walk-IL/dataset/trc/00531_00183.trc
DataRate	CameraRate	NumFrames	NumMarkers	Units	OrigDataRate	OrigDataStartFrame	OrigNumFrames
100.000000	100.000000	4	53	mm	100.000000	413	472
Frame#	Time	RPSI			LPSI			L3			STRN			T10			C7			CLAV			RBAK			LBAK			LSHO			LUPA			LAEL			LAOL			LWTS			LWPS			LFRA			LIFD			LHPS			LHTS			RSHO			RUPA			RAEL			RAOL			RWTS			RWPS			RFRA			RIFD			RHTS			RHPS			RBHD			LFHD			RFHD			LBHD			LHIP			RHIP			RASI			LASI			LKNE			LTHI			LANK			LTIP			LTOE			LMT1			LMT5			LHEE			RKNE			RTHI			RANK			RTIP			RTOE			RMT1			RMT5			RHEE			
		X1	Y1	Z1	X2	Y2	Z2	X3	Y3	Z3	X4	Y4	Z4	X5	Y5	Z5	X6	Y6	Z6	X7	Y7	Z7	X8	Y8	Z8	X9	Y9	Z9	X10	Y10	Z10	X11	Y11	Z11	X12	Y12	Z12	X13	Y13	Z13	X14	Y14	Z14	X15	Y15	Z15	X16	Y16	Z16	X17	Y17	Z17	X18	Y18	Z18	X19	Y19	Z19	X20	Y20	Z20	X21	Y21	Z21	X22	Y22	Z22	X23	Y23	Z23	X24	Y24	Z24	X25	Y25	Z25	X26	Y26	Z26	X27	Y27	Z27	X28	Y28	Z28	X29	Y29	Z29	X30	Y30	Z30	X31	Y31	Z31	X32	Y32	Z32	X33	Y33	Z33	X34	Y34	Z34	X35	Y35	Z35	X36	Y36	Z36	X37	Y37	Z37	X38	Y38	Z38	X39	Y39	Z39	X40	Y40	Z40	X41	Y41	Z41	X42	Y42	Z42	X43	Y43	Z43	X44	Y44	Z44	X45	Y45	Z45	X46	Y46	Z46	X47	Y47	Z47	X48	Y48	Z48	X49	Y49	Z49	X50	Y50	Z50	X51	Y51	Z51	X52	Y52	Z52	X53	Y53	Z53	

414	4.13	895.2771606445312	953.9545288085938	608.3372802734375	976.73095703125	952.2156372070312	515.228271484375	927.7095336914062	1017.109069824219	549.7266235351562	1087.6005859375	1197.110595703125	669.4302978515625	904.4332275390625	1119.480590820312	536.013427734375	921.3316040039062	1352.830322265625	551.4834594726562	1051.667846679688	1288.170776367188	642.8873291015625	840.115478515625	1227.758911132812	598.5896606445312	955.36181640625	1296.8154296875	468.5813293457031	1071.739990234375	1350.538452148438	461.0792541503906	1103.42333984375	1223.875	408.3509521484375	1141.615112304688	1015.952270507812	400.5317687988281	1045.371704101562	1000.557250976562	419.8640441894531	1215.716674804688	842.370361328125	482.4858703613281	1175.161376953125	798.1586303710938	409.8962707519531	1163.781005859375	934.958984375	409.9049987792969	1235.12646484375	687.25732421875	498.0526733398438	1200.72900390625	748.4359130859375	428.1501159667969	1243.731567382812	767.6513061523438	473.0361633300781	879.9685668945312	1351.100830078125	704.4180297851562	836.523193359375	1282.728759765625	741.722900390625	819.641845703125	1017.015563964844	786.398681640625	805.4475708007812	1000.09619140625	723.6101684570312	915.312255859375	812.5325317382812	824.1280517578125	826.8255615234375	794.9239501953125	820.2727661132812	819.014404296875	963.06689453125	795.8351440429688	906.942138671875	652.880126953125	830.1768188476562	909.3507080078125	719.6594848632812	853.517578125	841.8154907226562	720.9296264648438	834.4586791992188	889.0977172851562	1500.807983398438	626.1854248046875	1065.048828125	1589.403930664062	588.859619140625	982.1610717773438	1584.655151367188	685.5573120117188	982.7645263671875	1499.48828125	497.6904602050781	1144.962280273438	880.3335571289062	487.5732421875	901.6190185546875	864.0753173828125	782.712646484375	1015.802429199219	914.1207275390625	788.0302124023438	1168.036743164062	919.4999389648438	599.9491577148438	1101.98388671875	460.0186157226562	530.9520263671875	1140.397705078125	615.4343872070312	523.67138671875	973.0831298828125	45.84172058105469	462.0073547363281	1063.956176757812	311.6516418457031	503.6603088378906	1106.287475585938	28.1157398223877	620.6251831054688	1021.934387207031	35.25960159301758	605.1170043945312	1066.779052734375	32.4150390625	513.4566040039062	901.5572509765625	46.23176956176758	489.3622131347656	960.1282958984375	474.8646240234375	768.6364135742188	933.95849609375	734.1082763671875	802.2845458984375	921.732421875	41.5363883972168	703.0210571289062	976.3922119140625	329.9418640136719	753.2760009765625	1116.714477539062	31.50240898132324	771.4420776367188	1077.645751953125	36.92366790771484	705.4528198242188	1010.269592285156	34.86118316650391	774.7664184570312	901.4625854492188	33.66120910644531	635.6860961914062	
415	4.14	897.075927734375	953.9993286132812	610.397216796875	978.4007568359375	952.1226806640625	517.362060546875	929.4173583984375	1016.742004394531	551.7062377929688	1089.099609375	1197.262573242188	671.1604614257812	905.8616943359375	1119.01513671875	537.5117797851562	922.4207763671875	1352.45947265625	552.7723388671875	1052.94677734375	1288.20263671875	644.4134521484375	841.5288696289062	1227.255859375	600.0059814453125	956.6390991210938	1296.4365234375	470.0011901855469	1072.923828125	1350.390991210938	462.5050964355469	1104.40673828125	1223.685424804688	409.6827392578125	1140.98486328125	1015.602478027344	401.2519836425781	1044.71875	1000.830688476562	421.2082824707031	1212.729858398438	839.2716064453125	481.3597106933594	1170.603515625	796.5287475585938	408.7837219238281	1162.132446289062	933.6109619140625	409.8803100585938	1228.837036132812	683.6284790039062	495.4378051757812	1195.231689453125	746.1224975585938	426.3699645996094	1239.039672851562	764.0125732421875	471.0655517578125	881.0562744140625	1350.865112304688	705.641357421875	837.6093139648438	1282.601196289062	743.0422973632812	820.6663818359375	1017.077880859375	788.8423461914062	806.5056762695312	999.8695068359375	726.1126098632812	916.552001953125	812.883056640625	827.5481567382812	828.075439453125	795.2138061523438	823.6324462890625	820.0549926757812	963.1690673828125	798.5447387695312	908.1807250976562	653.2407836914062	834.4156494140625	910.53564453125	720.1607666015625	857.4347534179688	843.053466796875	721.2910766601562	838.2060546875	889.648681640625	1500.3818359375	627.6702270507812	1065.405029296875	1589.434936523438	590.6549682617188	982.5158081054688	1584.201049804688	687.1953735351562	983.3287353515625	1499.63134765625	499.2133178710938	1146.464599609375	880.0687866210938	489.6671752929688	903.3158569335938	864.2012939453125	784.8475952148438	1017.555236816406	914.0884399414062	790.164306640625	1169.72021484375	919.3709106445312	601.9750366210938	1103.31591796875	459.8739624023438	533.0402221679688	1141.880737304688	615.2166748046875	525.699951171875	972.9703369140625	46.2958869934082	462.4180297851562	1064.90625	311.6129455566406	505.3207092285156	1106.433471679688	28.07405281066895	620.7738037109375	1021.984191894531	35.11459732055664	605.5006713867188	1066.76611328125	32.60286712646484	513.6848754882812	901.5509643554688	46.67200469970703	489.7311096191406	959.8267211914062	474.7374572753906	769.7048950195312	934.4417724609375	734.3367919921875	804.0346069335938	921.6891479492188	41.49939346313477	703.0278930664062	975.897216796875	329.8576965332031	753.79833984375	1116.69580078125	31.50343322753906	771.4395751953125	1077.61767578125	36.98123931884766	705.4813842773438	1010.226989746094	34.84366607666016	774.8104248046875	901.4065551757812	33.66324996948242	635.7190551757812	
416	4.15	898.7554321289062	953.9671020507812	612.4879760742188	979.9361572265625	951.9834594726562	519.5006103515625	930.980224609375	1016.353698730469	553.6881713867188	1090.624755859375	1197.352416992188	672.8001098632812	907.21435546875	1118.546630859375	538.9996948242188	923.5364990234375	1352.084350585938	554.0594482421875	1054.276000976562	1288.182983398438	645.8738403320312	842.9330444335938	1226.792602539062	601.4434814453125	957.8728637695312	1296.041748046875	471.4092407226562	1074.087158203125	1350.186401367188	463.8485717773438	1105.332763671875	1223.42919921875	410.9264221191406	1140.368041992188	1015.187683105469	401.8187866210938	1044.119995117188	1001.029052734375	422.4499206542969	1209.776123046875	836.2920532226562	480.2291259765625	1166.18115234375	794.9829711914062	407.6898498535156	1160.528442382812	932.3218383789062	409.8150329589844	1222.55712890625	680.2049560546875	492.9997253417969	1189.85009765625	743.9298095703125	424.6865539550781	1234.394165039062	760.5253295898438	469.1941223144531	882.2262573242188	1350.61328125	706.885498046875	838.763671875	1282.458129882812	744.3826904296875	821.6104736328125	1017.120971679688	791.13623046875	807.4987182617188	999.6348266601562	728.4619750976562	917.6199340820312	813.30859375	831.115478515625	829.2127685546875	795.4202270507812	826.6358032226562	820.9596557617188	963.2367553710938	801.079833984375	909.4908447265625	653.6744995117188	838.812744140625	911.5280151367188	720.7554931640625	861.5018920898438	844.22705078125	721.5953369140625	841.707275390625	890.19873046875	1499.846557617188	629.0906372070312	1065.680053710938	1589.50146484375	592.4140625	982.78857421875	1583.729858398438	688.7889404296875	983.9168701171875	1499.731811523438	500.6875305175781	1147.769409179688	879.8084106445312	491.6272583007812	904.9746704101562	864.2450561523438	786.960693359375	1019.307922363281	913.9826049804688	792.2222900390625	1171.330688476562	919.2216796875	603.8552856445312	1104.470947265625	459.7303466796875	534.84521484375	1143.193725585938	615.0064697265625	527.4661865234375	972.840087890625	46.69580459594727	462.8028259277344	1065.7119140625	311.5945129394531	506.7570190429688	1106.558471679688	28.03671264648438	620.9100341796875	1022.017333984375	34.95248413085938	605.854248046875	1066.7431640625	32.77093505859375	513.8878784179688	901.5	47.08057403564453	490.11279296875	959.4894409179688	474.5948791503906	770.6739501953125	934.7708129882812	734.4641723632812	805.7371826171875	921.6506958007812	41.45537185668945	703.0150756835938	975.4058227539062	329.7531127929688	754.2796630859375	1116.682861328125	31.50412559509277	771.4324340820312	1077.59375	37.02835083007812	705.501220703125	1010.193786621094	34.83467864990234	774.8372192382812	901.3565063476562	33.64801406860352	635.725830078125	
417	4.16	900.3369140625	953.8601684570312	614.5859375	981.3484497070312	951.8043823242188	521.6151733398438	932.4021606445312	1015.938659667969	555.6503295898438	1092.168579101562	1197.38232421875	674.3497924804688	908.4862670898438	1118.081787109375	540.4737548828125	924.6716918945312	1351.705322265625	555.3494262695312	1055.647216796875	1288.115844726562	647.2696533203125	844.32275390625	1226.366577148438	602.9083862304688	959.0557250976562	1295.635375976562	472.8062744140625	1075.222900390625	1349.922241210938	465.1101684570312	1106.182983398438	1223.10986328125	412.0783996582031	1139.76171875	1014.708312988281	402.2428894042969	1043.568603515625	1001.14990234375	423.5938415527344	1206.867309570312	833.443359375	479.1189575195312	1161.925415039062	793.5214233398438	406.6285095214844	1158.970336914062	931.0911254882812	409.7172546386719	1216.36328125	677.001220703125	490.7600402832031	1184.632690429688	741.8603515625	423.1152648925781	1229.8349609375	757.2083129882812	467.4428405761719	883.466552734375	1350.351318359375	708.1546630859375	839.9805297851562	1282.302612304688	745.7498779296875	822.48486328125	1017.145935058594	793.26953125	808.4664306640625	999.38818359375	730.6393432617188	918.5284423828125	813.811279296875	834.8229370117188	830.2725830078125	795.5291748046875	829.2814331054688	821.75244140625	963.2687377929688	803.4248657226562	910.9126586914062	654.1871948242188	843.3571166992188	912.3626098632812	721.4429321289062	865.7018432617188	845.3829956054688	721.8373413085938	844.95263671875	890.7572631835938	1499.21240234375	630.4511108398438	1065.88525390625	1589.596069335938	594.1304931640625	982.98681640625	1583.248291015625	690.3390502929688	984.53173828125	1499.787719726562	502.113037109375	1148.921508789062	879.53857421875	493.459228515625	906.6026000976562	864.2329711914062	789.0441284179688	1021.0634765625	913.8236694335938	794.2015380859375	1172.874145507812	919.0455322265625	605.5991821289062	1105.450317382812	459.5762329101562	536.3859252929688	1144.342529296875	614.79150390625	528.9996337890625	972.70458984375	47.03451156616211	463.1509399414062	1066.383056640625	311.5863952636719	507.9744567871094	1106.659057617188	28.00481033325195	621.0298461914062	1022.037719726562	34.7907829284668	606.1616821289062	1066.709594726562	32.91758346557617	514.0652465820312	901.4014282226562	47.44609832763672	490.5013427734375	959.1260986328125	474.4424133300781	771.5715942382812	935.0347290039062	734.501708984375	807.4041137695312	921.6093139648438	41.40480804443359	702.998291015625	974.92431640625	329.6325073242188	754.7392578125	1116.6728515625	31.50538063049316	771.4228515625	1077.57080078125	37.07089996337891	705.5173950195312	1010.164611816406	34.83070373535156	774.8546752929688	901.3081665039062	33.61975479125977	635.7172241210938	
